<svg width="1024" height="1024" viewBox="0 0 1024 1024"
     xmlns="http://www.w3.org/2000/svg">
  <defs>
    <linearGradient id="bg" x1="0" y1="0" x2="0" y2="1">
      <stop offset="0%"   stop-color="#E4F3FF"/>
      <stop offset="100%" stop-color="#B8D8F8"/>
    </linearGradient>
  </defs>

  <!-- Background -->
  <rect width="1024" height="1024" rx="224" ry="224" fill="url(#bg)"/>

  <!-- Arrow arcs -->
  <path d="M 812.79,587.00 A 310,310 0 0,1 727.34,735.00" stroke="#1A5FA8" stroke-width="28" fill="none" stroke-linecap="round"/>
  <path d="M 597.45,809.99 A 310,310 0 0,1 426.55,809.99" stroke="#1A5FA8" stroke-width="28" fill="none" stroke-linecap="round"/>
  <path d="M 296.66,735.00 A 310,310 0 0,1 211.21,587.00" stroke="#1A5FA8" stroke-width="28" fill="none" stroke-linecap="round"/>
  <path d="M 211.21,437.00 A 310,310 0 0,1 296.66,289.00" stroke="#1A5FA8" stroke-width="28" fill="none" stroke-linecap="round"/>
  <path d="M 426.55,214.01 A 310,310 0 0,1 597.45,214.01" stroke="#1A5FA8" stroke-width="28" fill="none" stroke-linecap="round"/>
  <path d="M 727.34,289.00 A 310,310 0 0,1 812.79,437.00" stroke="#1A5FA8" stroke-width="28" fill="none" stroke-linecap="round"/>

  <!-- Arrowheads -->
  <path d="M 668.00,792.30 L 709.77,672.45 L 789.23,754.75 Z" fill="#1A5FA8"/>
  <path d="M 347.25,787.25 L 471.93,763.50 L 440.39,873.46 Z" fill="#1A5FA8"/>
  <path d="M 191.25,506.95 L 274.16,603.04 L 163.16,630.72 Z" fill="#1A5FA8"/>
  <path d="M 356.00,231.70 L 314.23,351.55 L 234.77,269.25 Z" fill="#1A5FA8"/>
  <path d="M 676.75,236.75 L 552.07,260.50 L 583.61,150.54 Z" fill="#1A5FA8"/>
  <path d="M 832.75,517.05 L 749.84,420.96 L 860.84,393.28 Z" fill="#1A5FA8"/>

  <!-- Center R -->
  <text x="512" y="512" text-anchor="middle" dominant-baseline="central"
        font-family="SF Pro Rounded, Helvetica Neue, Arial, sans-serif"
        font-size="220" font-weight="800"
        fill="#1A5FA8" opacity="0.9">R</text>
</svg>